<mxfile host="app.diagrams.net" modified="2023-06-03T05:56:06.291Z" agent="Mozilla/5.0 (Macintosh; Intel Mac OS X 10_15_7) AppleWebKit/537.36 (KHTML, like Gecko) Chrome/113.0.0.0 Safari/537.36" version="21.3.7" etag="7HvbPfMlFMp_xZGSloEz" type="github">
  <diagram name="第 1 页" id="Y6KZjZAPSjBCenxgXmrq">
    <mxGraphModel>
      <root>
        <mxCell id="0" />
        <mxCell id="1" parent="0" />
      </root>
    </mxGraphModel>
  </diagram>
</mxfile>
